# xmcd CD database file
#
# Track frame offsets:
#	150
#	13152
#	24562
#	36757
#	50377
#	62362
#	73890
#	86280
#	100080
#	111787
#	127452
#	141592
#	153397
#	166402
#	178850
#	190650
#	199925
#	218632
#	241572
#	260430
#
# Disc length: 3745 seconds
#
# Revision: 3
# Processed by: cddbd v1.5.2PL0 Copyright (c) Steve Scherf et al.
# Submitted via: CDex 1.51
#
DISCID=1b0e9f14
DTITLE=Various Artist - Living The Blues - BLUES FOR FUN
DYEAR=2000
DGENRE=Blues
TTITLE0=Louis Jordan And His Tympany Five - Beware
TTITLE1=Roy Byrd And His Blue Jumpers - Bald Head
TTITLE2=Piano Red - The Wrong Yo-Yo
TTITLE3=Piney Brown - Whispering Blues
TTITLE4=Bull Moose Jackson - Nosey Joe
TTITLE5=Jimmy Liggins And His 3-D Music - Drunk
TTITLE6=Buddy And Ella Johnson - (Gotta Go) Upside Your Head
TTITLE7=Screamin' Jay Hawkins - (She Put The) Wamee (On Me)
TTITLE8=Paul Bascomb - Mumbles Blues
TTITLE9=Bo Diddley - Cops And Robbers
TTITLE10=Jimmy Rogers - My Last Meal
TTITLE11=Jerry McCain And His Upstarts - Trying To Please
TTITLE12=Big Maybelle - One Monkey Don't Stop No Show
TTITLE13=Jack Dupree - Tongue Tied Blues
TTITLE14=Mercy Dee - Eighth Wonder Of The World
TTITLE15=Driftin' Slim - Mama Blues
TTITLE16=Albert Collins - I Ain't Drunk
TTITLE17=Blues Boy Willie - Be-Who?
TTITLE18=Johnnie Johnson - Stepped In What!?
TTITLE19=Screamin' Jay Hawkins - Constipation Blues
EXTD=YEAR: 2000
EXTT0=
EXTT1=
EXTT2=
EXTT3=
EXTT4=
EXTT5=
EXTT6=
EXTT7=
EXTT8=
EXTT9=
EXTT10=
EXTT11=
EXTT12=
EXTT13=
EXTT14=
EXTT15=
EXTT16=
EXTT17=
EXTT18=
EXTT19=
PLAYORDER=
